<svg id="Design" xmlns="http://www.w3.org/2000/svg" viewBox="0 0 23.32 27.14"><defs><style>.cls-1{fill:#666;}</style></defs><title></title><path class="cls-1" d="M3951.42,4070.32h0.51a1.07,1.07,0,0,1,.77.17,0.78,0.78,0,0,1,.25.6,0.69,0.69,0,0,1-.75.69h-0.33l1,1.69h0.41l-0.85-1.37a1,1,0,0,0,.85-1,1.12,1.12,0,0,0-.45-0.91,1.37,1.37,0,0,0-.84-0.2h-0.94v3.5h0.34v-3.16h0Z" transform="translate(-3951.03 -4046.41)"/><polygon class="cls-1" points="3.92 25.14 3.92 23.91 5.39 23.91 5.39 23.57 3.57 23.57 3.57 27.07 5.39 27.07 5.39 26.73 3.92 26.73 3.92 25.48 5.39 25.48 5.39 25.14 3.92 25.14 3.92 25.14"/><path class="cls-1" d="M3959.59,4072.07h-1.32l0.66-1.76,0.67,1.76h0Zm-1.86,1.41,0.42-1.1h1.56l0.42,1.1h0.37l-1.36-3.5h-0.41l-1.36,3.5h0.36Z" transform="translate(-3951.03 -4046.41)"/><polygon class="cls-1" points="12.04 27.07 12.04 26.73 10.81 26.73 10.81 23.57 10.47 23.57 10.47 27.07 12.04 27.07 12.04 27.07"/><polygon class="cls-1" points="13.78 27.07 13.78 23.91 14.47 23.91 14.47 23.57 12.73 23.57 12.73 23.91 13.43 23.91 13.43 27.07 13.78 27.07 13.78 27.07"/><path class="cls-1" d="M3966.24,4071.71a1.78,1.78,0,0,0,1.78,1.84,1.75,1.75,0,0,0,1.34-.59,1.78,1.78,0,0,0,.46-1.25,1.76,1.76,0,0,0-.54-1.29,1.73,1.73,0,0,0-1.26-.51,1.71,1.71,0,0,0-1.24.51,1.8,1.8,0,0,0-.55,1.29h0Zm0.36,0a1.54,1.54,0,0,1,.54-1.14,1.36,1.36,0,0,1,.88-0.33,1.49,1.49,0,1,1-1.42,1.47h0Z" transform="translate(-3951.03 -4046.41)"/><path class="cls-1" d="M3971.32,4070.32h0.51a1.07,1.07,0,0,1,.77.17,0.78,0.78,0,0,1,.25.6,0.69,0.69,0,0,1-.75.69h-0.33l1,1.69h0.41l-0.85-1.37a1,1,0,0,0,.85-1,1.12,1.12,0,0,0-.45-0.91,1.37,1.37,0,0,0-.84-0.2H3971v3.5h0.34v-3.16h0Z" transform="translate(-3951.03 -4046.41)"/><path class="cls-1" d="M3951,4046.41v22.31h22.31v-22.31H3951Zm11.86,2.68h2.49a4.22,4.22,0,0,1,0,8.42h-2.49v-8.41Zm-2.41,16.83h-6.29v-16.85h6.29v16.85Zm2.41,0v-8.39l8.72,8.39h-8.72Z" transform="translate(-3951.03 -4046.41)"/><path class="cls-1" d="M3973.71,4069.33a0.61,0.61,0,0,0-.44.18,0.65,0.65,0,0,0-.19.45,0.63,0.63,0,0,0,.19.45,0.62,0.62,0,0,0,.45.19,0.64,0.64,0,0,0,.45-0.19,0.61,0.61,0,0,0,.18-0.44,0.63,0.63,0,0,0-.63-0.63h0Zm0.56,0.64a0.54,0.54,0,0,1-.16.39,0.58,0.58,0,0,1-.4.17,0.57,0.57,0,0,1-.56-0.56,0.57,0.57,0,0,1,.17-0.4,0.54,0.54,0,0,1,.39-0.16,0.56,0.56,0,0,1,.56.57h0Zm-0.55-.38h-0.27v0.73h0.11V4070h0.17l0.15,0.32H3974l-0.16-.34a0.19,0.19,0,0,0,.17-0.19c0-.14-0.1-0.2-0.3-0.2h0Zm0,0.07c0.14,0,.21,0,0.21.13s-0.07.13-.21,0.13h-0.14v-0.26h0.14Z" transform="translate(-3951.03 -4046.41)"/></svg>
